<svg xmlns="http://www.w3.org/2000/svg" width="24" height="24" viewBox="0 0 24 24" fill="none" stroke="#6b7280" stroke-width="1.5" stroke-linecap="round" stroke-linejoin="round" aria-hidden="true">
  <circle cx="13.5" cy="6.5" r=".5"/>
  <circle cx="17.5" cy="10.5" r=".5"/>
  <circle cx="8.5" cy="7.5" r=".5"/>
  <circle cx="6.5" cy="12.5" r=".5"/>
  <path d="M12 2C6.5 2 2 6.5 2 12s4.5 10 10 10c.926 0 1.648-.746 1.648-1.648 0-.437-.18-.835-.437-1.125-.29-.289-.438-.652-.438-1.125a1.64 1.64 0 0 1 1.648-1.648h1.852c1.765 0 3.19-1.424 3.19-3.19a3.195 3.195 0 0 0-3.19-3.19H14"/>
</svg>
